<svg width="250" height="250" viewBox="0 0 250 250" fill="none" xmlns="http://www.w3.org/2000/svg">
<g clip-path="url(#clip0_1_5)">
<rect width="250" height="250" rx="15" fill="white"/>
<path d="M21 169V81.5H60.375C65.9583 81.5 71 82.7083 75.5 85.125C80.0833 87.5417 83.6667 90.875 86.25 95.125C88.8333 99.2917 90.125 104.042 90.125 109.375C90.125 114.875 88.8333 119.833 86.25 124.25C83.6667 128.583 80.125 132 75.625 134.5C71.125 137 66.0417 138.25 60.375 138.25H41.25V169H21ZM69.5 169L47.25 129.5L69 126.375L93.75 169H69.5ZM41.25 122H58.5C60.6667 122 62.5417 121.542 64.125 120.625C65.7917 119.625 67.0417 118.25 67.875 116.5C68.7917 114.75 69.25 112.75 69.25 110.5C69.25 108.25 68.75 106.292 67.75 104.625C66.75 102.875 65.2917 101.542 63.375 100.625C61.5417 99.7083 59.2917 99.25 56.625 99.25H41.25V122ZM124.396 169L98.1465 81.5H119.771L132.896 127.5C133.48 129.583 133.98 131.708 134.396 133.875C134.896 135.958 135.271 137.958 135.521 139.875C135.855 141.792 136.105 143.583 136.271 145.25C136.438 146.833 136.605 148.167 136.771 149.25H134.021C134.521 146.167 134.938 143.417 135.271 141C135.688 138.583 136.146 136.333 136.646 134.25C137.146 132.083 137.771 129.833 138.521 127.5L151.521 92.875H168.521L181.271 127.5C182.271 130.25 183.105 132.833 183.771 135.25C184.438 137.667 184.938 140 185.271 142.25C185.688 144.417 186.021 146.583 186.271 148.75L183.771 149.125C183.938 147.625 184.063 146.25 184.146 145C184.23 143.667 184.313 142.417 184.396 141.25C184.563 140 184.73 138.708 184.896 137.375C185.063 136.042 185.313 134.583 185.646 133C185.98 131.333 186.438 129.458 187.021 127.375L200.021 81.5H221.146L194.896 169H178.646L157.896 118.625L160.271 118.875L141.146 169H124.396ZM227.782 170.375C224.366 170.375 221.699 169.417 219.782 167.5C217.949 165.583 217.032 162.833 217.032 159.25C217.032 155.917 218.032 153.208 220.032 151.125C222.032 149.042 224.616 148 227.782 148C231.199 148 233.866 149 235.782 151C237.699 152.917 238.657 155.667 238.657 159.25C238.657 162.5 237.657 165.167 235.657 167.25C233.657 169.333 231.032 170.375 227.782 170.375Z" fill="black"/>
</g>
<defs>
<clipPath id="clip0_1_5">
<rect width="250" height="250" fill="white"/>
</clipPath>
</defs>
</svg>
