<svg class="svg-icon" style="width: 1em; height: 1em;vertical-align: middle;fill: currentColor;overflow: hidden;" viewBox="0 0 1024 1024" version="1.1" xmlns="http://www.w3.org/2000/svg"><path d="M746.666667 383.957333a231.210667 231.210667 0 0 0-109.44 27.52A42.666667 42.666667 0 0 0 597.333333 383.957333h-170.666666a42.666667 42.666667 0 0 0-42.666667 42.666667v512a42.666667 42.666667 0 0 0 42.666667 42.666667h170.666666a42.666667 42.666667 0 0 0 42.666667-42.666667v-234.666667a42.666667 42.666667 0 1 1 85.333333 0v234.666667a42.666667 42.666667 0 0 0 42.666667 42.666667h170.666667a42.666667 42.666667 0 0 0 42.666666-42.666667v-320a234.965333 234.965333 0 0 0-234.666666-234.666667z m149.333333 512h-85.333333v-192a128 128 0 1 0-256 0v192h-85.333334v-426.666666h85.333334v29.994666a42.666667 42.666667 0 0 0 75.989333 26.666667A148.608 148.608 0 0 1 896 618.666667z m-597.333333-512H128a42.666667 42.666667 0 0 0-42.666667 42.666667v512a42.666667 42.666667 0 0 0 42.666667 42.666667h170.666667a42.666667 42.666667 0 0 0 42.666666-42.666667v-512a42.666667 42.666667 0 0 0-42.666666-42.666667z m-42.666667 512H170.666667v-426.666666h85.333333zM213.973333 65.792a137.941333 137.941333 0 1 0-2.432 275.498667h1.194667a137.941333 137.941333 0 1 0 1.237333-275.498667z m-1.237333 190.165333h-1.194667a52.138667 52.138667 0 0 1-58.453333-52.394666c0-31.872 23.893333-52.437333 60.885333-52.437334A52.650667 52.650667 0 0 1 273.493333 203.562667c0 31.829333-23.893333 52.394667-60.8 52.394666z"  /></svg>