<svg class="svg-icon" style="width: 1.00390625em;height: 1em;vertical-align: middle;fill: currentColor;overflow: hidden;" viewBox="0 0 1028 1024" version="1.1" xmlns="http://www.w3.org/2000/svg"><path d="M1002.666667 264.533333c-12.8-59.733333-59.733333-102.4-115.2-119.466666C814.933333 128 541.866667 128 512 128c-29.866667 0-302.933333 0-379.733333 21.333333C76.8 166.4 34.133333 209.066667 21.333333 268.8 8.533333 345.6 0 422.4 0 499.2c0 76.8 4.266667 157.866667 21.333333 238.933333 17.066667 55.466667 59.733333 98.133333 110.933334 110.933334 76.8 21.333333 345.6 21.333333 379.733333 21.333333s302.933333 0 379.733333-21.333333c55.466667-17.066667 98.133333-59.733333 115.2-119.466667 12.8-76.8 21.333333-153.6 21.333334-230.4-4.266667-76.8-8.533333-153.6-25.6-234.666667z m-81.066667 452.266667c-8.533333 25.6-25.6 46.933333-51.2 55.466667-51.2 12.8-238.933333 17.066667-354.133333 17.066666s-311.466667-8.533333-358.4-21.333333c-25.6-8.533333-46.933333-25.6-51.2-46.933333-17.066667-72.533333-21.333333-145.066667-21.333334-221.866667 0-72.533333 4.266667-145.066667 17.066667-213.333333 8.533333-25.6 25.6-46.933333 51.2-55.466667C204.8 217.6 396.8 213.333333 512 213.333333c81.066667 0 298.666667 4.266667 354.133333 17.066667 25.6 8.533333 46.933333 25.6 51.2 55.466667 17.066667 68.266667 21.333333 140.8 21.333334 217.6 0 72.533333-4.266667 145.066667-17.066667 213.333333z"  /><path d="M682.666667 465.066667l-247.466667-140.8c-12.8-8.533333-29.866667-8.533333-42.666667 0s-17.066667 21.333333-17.066666 38.4V640c0 17.066667 8.533333 29.866667 21.333333 38.4 4.266667 4.266667 12.8 4.266667 21.333333 4.266667s12.8 0 21.333334-4.266667l247.466666-140.8c12.8-8.533333 21.333333-21.333333 21.333334-38.4-4.266667-12.8-12.8-25.6-25.6-34.133333z m-221.866667 102.4v-132.266667l115.2 68.266667-115.2 64z"  /></svg>